HIERARCHY
ROOT Hip
{
    OFFSET 0.0 0.0 0.0
    CHANNELS 6 Xposition Yposition Zposition Zrotation Xrotation Yrotation
    JOINT RightHip
    {
        OFFSET -6.757881164550781 0.0 0.0
        CHANNELS 3 Zrotation Xrotation Yrotation
        JOINT RightKnee
        {
            OFFSET 0.0 0.0 -29.099498748779297
            CHANNELS 3 Zrotation Xrotation Yrotation
            JOINT RightAnkle
            {
                OFFSET 0.0 0.0 -39.484283447265625
                CHANNELS 3 Zrotation Xrotation Yrotation
                End Site
                {
                    OFFSET 0.0 -15.793712615966797 0.0
                }
            }
        }
    }
    JOINT LeftHip
    {
        OFFSET 6.757881164550781 0.0 0.0
        CHANNELS 3 Zrotation Xrotation Yrotation
        JOINT LeftKnee
        {
            OFFSET 0.0 0.0 -29.099498748779297
            CHANNELS 3 Zrotation Xrotation Yrotation
            JOINT LeftAnkle
            {
                OFFSET 0.0 0.0 -39.484283447265625
                CHANNELS 3 Zrotation Xrotation Yrotation
                End Site
                {
                    OFFSET 0.0 -15.793712615966797 0.0
                }
            }
        }
    }
    JOINT Spine
    {
        OFFSET 0.0 0.0 24.281024932861328
        CHANNELS 3 Zrotation Xrotation Yrotation
        JOINT Thorax
        {
            OFFSET 0.0 0.0 27.791271209716797
            CHANNELS 3 Zrotation Xrotation Yrotation
            JOINT Neck
            {
                OFFSET 0.0 0.0 10.359114646911621
                CHANNELS 3 Zrotation Xrotation Yrotation
                End Site
                {
                    OFFSET 0.0 0.0 4.143645763397217
                }
            }
            JOINT LeftShoulder
            {
                OFFSET 7.6860880851745605 0.0 0.0
                CHANNELS 3 Zrotation Xrotation Yrotation
                JOINT LeftElbow
                {
                    OFFSET 12.994422912597656 0.0 0.0
                    CHANNELS 3 Zrotation Xrotation Yrotation
                    JOINT LeftWrist
                    {
                        OFFSET 19.790603637695312 0.0 0.0
                        CHANNELS 3 Zrotation Xrotation Yrotation
                        End Site
                        {
                            OFFSET 7.916241645812988 0.0 0.0
                        }
                    }
                }
            }
            JOINT RightShoulder
            {
                OFFSET -7.6860880851745605 0.0 0.0
                CHANNELS 3 Zrotation Xrotation Yrotation
                JOINT RightElbow
                {
                    OFFSET -12.994422912597656 0.0 0.0
                    CHANNELS 3 Zrotation Xrotation Yrotation
                    JOINT RightWrist
                    {
                        OFFSET -19.790603637695312 0.0 0.0
                        CHANNELS 3 Zrotation Xrotation Yrotation
                        End Site
                        {
                            OFFSET -7.916241645812988 0.0 0.0
                        }
                    }
                }
            }
        }
    }
}
MOTION
Frames: 4
Frame Time: 0.03333333333333333
-0.0007851667469367385 -0.009983034804463387 -0.00025443447520956397 0.3560099138935218 25.13230498721019 170.64495933460353 2.776378334706907 -24.398822836353443 -16.528620401561806 -45.517577434513306 58.61983108881142 30.195375140076724 -7.951386703658792e-16 8.276074308844047e-33 -1.1927080055488188e-15 2.1876423736196324 -18.137154743188997 44.547760212086985 49.12737462403091 44.12615669651833 -50.70027576917252 -2.981770013872047e-16 1.034509288605506e-33 -3.975693351829396e-16 0.6541103777541827 -5.885087769013448 3.0577343707678395 25.12485355367832 -4.2456485212995996e-06 1.1666602199841032e-06 -51.02187544930584 20.47781156974402 7.31763635043902 -161.8066893631893 -4.184899506361757 -128.72617846105786 -27.266321270540864 2.1966174955149604e-06 1.8703816450320622e-06 2.648343778830095e-31 4.770832022195275e-15 -6.3611093629270335e-15 122.03073739839783 10.883738071690205 109.63346065890204 40.65659405814561 -1.8486810322344642e-06 -1.2077769580722686e-06 -6.3611093629270335e-15 -3.531125038440127e-31 6.3611093629270335e-15
-0.0009215407771989703 -0.011000757105648518 -0.0004312826495151967 5.485683529879524 22.770968683277314 170.9955441018551 0.34486196101366373 -21.847069623413404 -26.8651647755969 -39.25140600045704 49.67295848870911 34.60714954526195 -3.9756933518293955e-16 -5.344964657795114e-33 1.5405811738338907e-15 0.6636146662087667 -23.0186495216946 45.18486913698618 51.81012907192191 39.22483164296031 -50.876667809967564 9.939233379573489e-17 2.3168697609394145e-34 2.671168970760375e-16 0.14614334054410796 -6.81625062470679 2.9000330759708106 16.77327223797216 1.0739182200403709e-06 -1.2781249783605455e-08 -13.955052279974067 23.672397236993234 1.8605266621240992 -135.78524716228776 11.571648022211443 -134.1220811700343 -12.393090752483229 4.525865681169362e-06 1.509846575591661e-06 0.0 0.0 3.1805546814635168e-15 136.17094498391745 24.795823672474825 111.15140676109728 29.53773131227108 1.0402616311875181e-06 1.5393068301225672e-06 8.827812596100317e-32 -3.1805546814635168e-15 3.1805546814635168e-15
-0.0006710273446515203 -0.01110799890011549 -0.00031777273397892714 13.0704292421279 19.73778282749709 171.15497546975033 0.2465367003345639 -18.22609998611126 -32.31942251171674 -37.635011792866116 42.612556433341034 41.12474241509608 7.951386703658794e-16 3.1805546814635168e-15 -3.776908684237926e-15 0.8011233655433302 -30.73717992038974 38.83793419665428 55.05784588071999 46.83235942741383 -46.85226389867052 -5.963540027744095e-16 -3.1805546814635168e-15 -1.987846675914698e-15 0.1959112410478324 -9.694028670902128 1.269737303751882 3.314058915306635 -6.642291446408019e-07 2.3505148293297366e-07 16.69786757048844 24.7411886960765 0.2710723392526288 -103.29930612516536 18.87498884319495 -134.90293551664135 -11.467159837208087 1.8847827500843474e-06 -1.1933712562490182e-06 0.0 0.0 0.0 177.0910926156673 35.916717173995686 95.0413747186274 24.078656154024557 -4.86412158635839e-07 -1.4704947234640404e-06 0.0 3.180554681463516e-15 0.0
2.401793608441949e-06 -0.010282178409397602 -0.00022710560006089509 17.316390955781657 20.769113475897925 172.90443693510232 0.48184170837048507 -23.989149573003186 -28.45049613774118 -49.32164933420611 52.787760014461746 59.36511112809823 5.963540027744096e-16 2.069018577211012e-33 3.975693351829397e-16 0.7802617486860972 -27.272844295318652 21.460753066452188 35.83589301257207 58.09462233645624 -29.168863050191085 2.981770013872047e-16 1.034509288605506e-33 3.975693351829396e-16 0.273204712501223 -11.720410372489 0.8153308057061058 -22.3968179146351 1.8847351088636795e-06 1.6064546750890812e-06 19.49344590710636 20.127414687620266 15.48678206524257 -96.37857667922023 19.727869209284815 -112.24391884248023 -27.5276885978385 -3.0584000605360203e-06 3.9694608141680075e-06 -4.4139062980501586e-32 1.5902773407317588e-15 3.1805546814635176e-15 177.34193017655411 8.447009885310978 125.60779976297265 40.015190041696826 -7.823937612962795e-07 5.271900579315078e-07 0.0 0.0 3.1805546814635168e-15
